<?xml version="1.0" encoding="utf-8"?><!-- Generator: Adobe Illustrator 24.0.2, SVG Export Plug-In . SVG Version: 6.00 Build 0)  -->
<svg version="1.1" id="Layer_1" xmlns="http://www.w3.org/2000/svg"
    xmlns:xlink="http://www.w3.org/1999/xlink" x="0px" y="0px" viewBox="0 -3 114.9 26.8"
    style="enable-background:new 0 -3 114.9 26.8;" xml:space="preserve">
<g>
	<polygon fill="#ED7400" class="st0" points="70.9,3.5 66.3,6.7 67.3,0.2 71.4,0.2 	" />
    <g>
		<polygon fill="#0299AB" class="st1" points="64.3,20.6 68.4,20.6 70.6,5.5 66,8.8 		" />
        <path fill="#0299AB" class="st1" d="M5.7,7.7l0.5-3.2c0.1-1,0.7-1.3,1.6-1.3h10.3l1.8-3H6C4.8,0.2,3.9,0.5,3.3,1C2.7,1.5,2.4,2.2,2.2,3.1
			L0.1,17.6c-0.4,2.3,0.6,3,2.8,3h14.2l1.8-3.1h-13c-0.7,0-1.2-0.1-1.4-0.2c-0.2-0.2-0.2-0.6-0.2-0.9L5,11.7h9.9l1.8-3H5.5L5.7,7.7
			L5.7,7.7z" />
        <path fill="#0299AB" class="st1" d="M39.1,0.2l-8.9,16.5c-0.3,0.5-0.7,0.7-0.9,0L25.2,0.2h-4.5l5.2,18.4c0.4,1.5,1.5,2.2,3.2,2.2s3-0.7,3.9-2.2
			L43.6,0.2H39.1z" />
        <path fill="#0299AB" class="st1" d="M109.3,2.3c-0.6-1.8-1.4-2.3-3.2-2.3c-2,0-2.9,0.6-3.9,2.3L91.3,20.7h4.3l3-5.2h10.5l1.5,5.2h4.3L109.3,2.3z
			 M99.9,12.7l4.8-8.3c0.3-0.6,0.6-0.8,0.7-0.8c0.2,0,0.3,0.3,0.5,0.8l2.3,8.3H99.9z" />
        <path fill="#0299AB" class="st1" d="M58.3,0.2H47.9c-2.4,0-3.7,1.1-4,3.5l-2.5,16.9h4.1l1.1-7.4c1.9,0,2.6-0.2,3.5,0.8l6.2,6.6h5.2l-7.2-7.2v-0.1
			h2.8c4.1,0,5.5-3.2,6-6.7C63.7,2.6,62.7,0.2,58.3,0.2z M58.9,6.7C58.7,8.1,58.4,9,58,9.5c-0.5,0.6-1.3,0.9-2.4,0.9
			c-2.8,0-5.7,0-8.5,0l0.8-5.7c0.1-1,0.8-1.5,1.7-1.5h6.7c1.1,0,1.8,0.2,2.2,0.6C59,4.4,59.1,5.3,58.9,6.7z" />
        <path fill="#0299AB" class="st1" d="M80.9,10.1c0.1-0.4,0.5-0.9,1.3-1.5l10.6-8.4h-5.1l-9.4,7.6c-0.1,0.1-0.1,0.1-0.2,0.2l1.1-7.8h-4.1l-3,20.4
			h4.1l1.2-8.3c0.1,0.2,0.3,0.3,0.4,0.5l7.8,7.9h5.2l-9.1-8.6C81.1,11.3,80.8,10.6,80.9,10.1z" />
	</g>
</g>
</svg>
