<?xml version="1.0" encoding="utf-8"?>
<!-- Generator: Adobe Illustrator 24.0.2, SVG Export Plug-In . SVG Version: 6.00 Build 0)  -->
<svg version="1.1" id="Layer_1" xmlns="http://www.w3.org/2000/svg" xmlns:xlink="http://www.w3.org/1999/xlink" x="0px" y="0px"
	 viewBox="0 0 248.8 45.6" style="enable-background:new 0 0 248.8 45.6;" xml:space="preserve">
<path class="st0" fill="#202020" d="M187,35.5L187,35.5c0-0.3,0.1-0.5,0.3-0.6c0.2-0.2,0.4-0.2,0.6-0.2c0.3,0,0.5,0.1,0.6,0.2
	c0.2,0.2,0.3,0.4,0.3,0.6v4.8c0,0.2-0.1,0.5-0.3,0.6c-0.2,0.2-0.4,0.2-0.6,0.2c-0.3,0-0.5-0.1-0.6-0.2c-0.2-0.2-0.3-0.4-0.3-0.6
	V35.5z M185.5,40.4L185.5,40.4c0,1-0.3,1.8-0.9,2.5c-0.6,0.7-1.4,1-2.4,1c-0.8,0-1.6-0.3-2.1-0.8c-0.6-0.5-0.9-1.2-1.1-2h-0.7v1.8
	c0,0.3-0.1,0.5-0.3,0.7s-0.4,0.3-0.7,0.3s-0.5-0.1-0.7-0.3s-0.3-0.4-0.3-0.7v-4.8c0-0.3,0.1-0.5,0.3-0.7s0.4-0.3,0.7-0.3
	s0.5,0.1,0.7,0.3s0.3,0.4,0.3,0.7v1.5h0.8c0.2-0.7,0.6-1.4,1.1-1.8c0.6-0.5,1.2-0.7,2-0.7c0.9,0,1.7,0.4,2.3,1.1
	C185.2,38.6,185.5,39.5,185.5,40.4 M183.7,40.4c0-0.5-0.1-0.9-0.3-1.2c-0.3-0.4-0.6-0.6-1.1-0.6s-0.8,0.2-1.1,0.6
	c-0.2,0.3-0.3,0.8-0.3,1.2c0,0.5,0.1,0.9,0.4,1.2c0.3,0.4,0.6,0.6,1.1,0.6s0.8-0.2,1.1-0.6C183.6,41.3,183.7,40.9,183.7,40.4
	 M172.1,42.2L172.1,42.2h1.2c0.5,0,0.7-0.2,0.7-0.7c0-0.4-0.3-0.6-0.8-0.6h-1.1L172.1,42.2L172.1,42.2z M171.2,43.7
	c-0.3,0-0.5-0.1-0.7-0.3s-0.3-0.4-0.3-0.7v-4.8c0-0.3,0.1-0.5,0.3-0.7s0.4-0.3,0.7-0.3s0.5,0.1,0.7,0.3s0.3,0.4,0.3,0.7v1.5h1.3
	c0.7,0,1.3,0.2,1.7,0.5c0.5,0.4,0.7,0.9,0.7,1.6c0,0.7-0.2,1.2-0.6,1.6c-0.4,0.4-0.9,0.6-1.6,0.6L171.2,43.7L171.2,43.7z
	 M163.7,37.9L163.7,37.9c0-0.2,0.1-0.4,0.3-0.6c0.2-0.2,0.4-0.2,0.6-0.2h2.4c0.5,0,0.9,0.2,1.2,0.5s0.5,0.7,0.5,1.2
	c0,0.6-0.3,1.1-0.9,1.4l0,0c0.4,0.1,0.7,0.2,1,0.5s0.4,0.7,0.4,1.1c0,0.6-0.2,1.1-0.6,1.5c-0.4,0.4-0.9,0.5-1.6,0.5h-2.6
	c-0.2,0-0.4-0.1-0.6-0.3c-0.2-0.2-0.3-0.4-0.3-0.6v-5H163.7z M165.5,39.7L165.5,39.7h0.7c0.5,0,0.8-0.2,0.8-0.7
	c0-0.4-0.2-0.7-0.8-0.7h-0.7V39.7z M165.5,42.5h1.1c0.6,0,0.9-0.3,0.9-0.8s-0.3-0.7-1-0.7h-1V42.5z M159.7,36.9L159.7,36.9
	c0.9,0,1.7,0.4,2.3,1.1c0.6,0.7,0.9,1.5,0.9,2.4c0,1-0.3,1.8-0.9,2.5c-0.6,0.7-1.4,1-2.4,1s-1.7-0.3-2.4-1c-0.6-0.7-0.9-1.5-0.9-2.5
	c0-0.9,0.3-1.8,0.9-2.4C158,37.3,158.8,36.9,159.7,36.9 M159.7,38.6c-0.5,0-0.8,0.2-1.1,0.6c-0.2,0.3-0.3,0.8-0.3,1.2
	c0,0.5,0.1,0.9,0.3,1.2c0.3,0.4,0.6,0.6,1.1,0.6s0.8-0.2,1.1-0.6c0.2-0.3,0.3-0.8,0.3-1.2c0-0.5-0.1-0.9-0.3-1.2
	C160.5,38.8,160.2,38.6,159.7,38.6 M155.9,40.5L155.9,40.5c0,0.9-0.3,1.7-0.9,2.4c-0.6,0.7-1.4,1-2.4,1c-1.5,0-2.5-0.7-3-2.2
	c-0.2-0.4-0.2-1.2-0.2-2.1c0-1.7,0.3-2.8,1-3.5s1.8-1.1,3.3-1.2c0.1,0,0.2-0.1,0.4-0.2c0.2-0.1,0.3-0.1,0.4-0.1
	c0.2,0,0.4,0.1,0.6,0.2c0.2,0.2,0.2,0.3,0.2,0.5c0,0.3-0.1,0.5-0.3,0.7c-0.3,0.2-0.6,0.3-1,0.4c-1.1,0.1-1.9,0.2-2.5,0.5
	c-0.4,0.2-0.6,0.5-0.7,0.9l0,0c0.4-0.5,1-0.8,1.8-0.8c0.9,0,1.6,0.3,2.2,1C155.6,38.9,155.9,39.6,155.9,40.5 M154.1,40.5
	c0-0.5-0.1-0.9-0.3-1.2c-0.3-0.4-0.6-0.6-1.1-0.6s-0.8,0.2-1.1,0.6c-0.2,0.3-0.3,0.7-0.3,1.2s0.1,0.9,0.3,1.2
	c0.3,0.4,0.6,0.6,1.1,0.6s0.8-0.2,1.1-0.6C154,41.3,154.1,40.9,154.1,40.5 M148.9,40.4L148.9,40.4c0,1-0.3,1.8-0.9,2.5
	c-0.6,0.7-1.4,1-2.4,1c-0.8,0-1.6-0.3-2.1-0.8c-0.6-0.5-0.9-1.2-1.1-2h-0.7v1.8c0,0.3-0.1,0.5-0.2,0.7c-0.2,0.2-0.4,0.3-0.7,0.3
	s-0.5-0.1-0.7-0.3s-0.3-0.4-0.3-0.7v-4.8c0-0.3,0.1-0.5,0.3-0.7s0.4-0.3,0.7-0.3s0.5,0.1,0.7,0.3s0.2,0.4,0.2,0.7v1.5h0.8
	c0.2-0.7,0.6-1.4,1.1-1.8c0.6-0.5,1.2-0.7,2-0.7c0.9,0,1.7,0.4,2.3,1.1C148.6,38.6,148.9,39.5,148.9,40.4 M147.1,40.4
	c0-0.5-0.1-0.9-0.3-1.2c-0.3-0.4-0.6-0.6-1.1-0.6s-0.8,0.2-1.1,0.6c-0.2,0.3-0.3,0.8-0.3,1.2c0,0.5,0.1,0.9,0.4,1.2
	c0.3,0.4,0.6,0.6,1.1,0.6s0.8-0.2,1.1-0.6C147,41.3,147.1,40.9,147.1,40.4 M133.8,38.1c0-0.3,0.1-0.5,0.3-0.7s0.4-0.3,0.7-0.3h3.3
	c0.3,0,0.5,0.1,0.7,0.3s0.3,0.4,0.3,0.7v4.8c0,0.3-0.1,0.5-0.3,0.7s-0.4,0.3-0.7,0.3s-0.5-0.1-0.7-0.3s-0.3-0.4-0.3-0.7v-4.2h-1.5
	v1.9c0,1.1-0.2,1.9-0.7,2.5c-0.4,0.6-1,0.8-1.7,0.8c-0.2,0-0.4-0.1-0.6-0.3c-0.1-0.2-0.2-0.3-0.2-0.6c0-0.4,0.2-0.6,0.6-0.7
	c0.5-0.1,0.7-0.7,0.7-1.5L133.8,38.1L133.8,38.1z M128.1,38c0,0.2-0.1,0.4-0.2,0.6c-0.1,0.2-0.3,0.3-0.5,0.3c-0.1,0-0.4-0.1-0.7-0.2
	c-0.3-0.1-0.6-0.2-0.8-0.2c-0.5,0-0.9,0.2-1.1,0.6c-0.2,0.3-0.4,0.8-0.4,1.3s0.1,0.9,0.4,1.2c0.3,0.4,0.7,0.6,1.1,0.6
	c0.2,0,0.4-0.1,0.8-0.2c0.3-0.1,0.5-0.2,0.6-0.2c0.2,0,0.4,0.1,0.6,0.2c0.2,0.2,0.2,0.3,0.2,0.6c0,0.4-0.3,0.7-0.9,1
	c-0.4,0.2-0.9,0.3-1.4,0.3c-1,0-1.7-0.3-2.4-1c-0.6-0.7-0.9-1.5-0.9-2.5c0-0.9,0.3-1.8,0.9-2.4c0.6-0.7,1.4-1.1,2.3-1.1
	c0.5,0,1,0.1,1.4,0.2C127.8,37.4,128.1,37.7,128.1,38 M117.9,42.9c0,0.2-0.1,0.4-0.2,0.6c-0.2,0.2-0.4,0.3-0.6,0.3
	c-0.6,0-0.9-0.3-0.9-0.8l-0.5-3.3l0,0l-1,3.5c-0.1,0.4-0.4,0.6-0.9,0.6s-0.8-0.2-0.9-0.6l-1-3.5l0,0l-0.5,3.3
	c-0.1,0.5-0.4,0.8-0.9,0.8c-0.2,0-0.4-0.1-0.6-0.3c-0.2-0.2-0.2-0.4-0.2-0.6c0-0.1,0-0.1,0-0.2l0.9-5c0-0.2,0.2-0.4,0.4-0.5
	c0.2-0.2,0.5-0.3,0.8-0.3s0.5,0.1,0.7,0.2c0.2,0.1,0.3,0.3,0.4,0.5l1,3.3l0,0l1-3.3c0.1-0.2,0.2-0.4,0.4-0.5
	c0.2-0.2,0.5-0.2,0.7-0.2c0.3,0,0.6,0.1,0.8,0.3s0.3,0.3,0.4,0.5l0.9,5C117.9,42.8,117.9,42.9,117.9,42.9 M104.4,41L104.4,41
	c0.1,0.4,0.3,0.8,0.6,1s0.7,0.3,1.1,0.3c0.4,0,0.7-0.1,1.2-0.4c0.5-0.2,0.7-0.4,0.9-0.4s0.4,0.1,0.5,0.2c0.2,0.2,0.2,0.3,0.2,0.5
	c0,0.4-0.3,0.7-1,1.1c-0.6,0.3-1.3,0.5-2,0.5c-1,0-1.8-0.3-2.5-1c-0.6-0.6-0.9-1.5-0.9-2.5c0-0.9,0.3-1.8,0.9-2.4
	c0.6-0.7,1.4-1.1,2.3-1.1c0.9,0,1.7,0.4,2.4,1.1c0.6,0.7,0.9,1.4,0.9,2.2c0,0.5-0.3,0.8-0.8,0.8L104.4,41L104.4,41z M107.2,39.8
	c-0.1-0.9-0.6-1.4-1.5-1.4c-0.4,0-0.7,0.1-1,0.4c-0.3,0.3-0.4,0.6-0.5,1H107.2z M97.8,41.7L97.8,41.7c0,0.4,0.4,0.7,1.1,0.7
	c0.9,0,1.4-0.5,1.4-1.4v-0.3c-0.9,0-1.4,0-1.6,0.1C98,40.9,97.8,41.2,97.8,41.7 M100.2,43.1c-0.3,0.5-0.9,0.7-1.7,0.7
	s-1.4-0.2-1.8-0.6c-0.5-0.4-0.7-0.9-0.7-1.6c0-1.6,1.4-2.4,4.1-2.4v-0.5c0-0.3-0.3-0.5-0.8-0.5c-0.4,0-0.8,0.1-1.1,0.3
	s-0.5,0.3-0.6,0.3c-0.5,0-0.8-0.3-0.8-0.8c0-0.4,0.3-0.7,0.9-1c0.5-0.3,1.1-0.4,1.7-0.4c1.7,0,2.6,0.7,2.6,2v3.9
	c0,0.3-0.1,0.5-0.2,0.7c-0.2,0.2-0.4,0.3-0.6,0.3C100.6,43.8,100.3,43.6,100.2,43.1 M90.1,38.1c0-0.3,0.1-0.5,0.3-0.7
	s0.4-0.3,0.7-0.3h3.3c0.3,0,0.5,0.1,0.7,0.3s0.3,0.4,0.3,0.7v4.8c0,0.3-0.1,0.5-0.3,0.7s-0.4,0.3-0.7,0.3s-0.5-0.1-0.6-0.3
	c-0.2-0.2-0.3-0.4-0.3-0.7v-4.2h-1.6v1.9c0,1.1-0.2,1.9-0.7,2.5c-0.4,0.6-1,0.8-1.7,0.8c-0.2,0-0.4-0.1-0.6-0.3
	c-0.1-0.2-0.2-0.3-0.2-0.6c0-0.4,0.2-0.6,0.6-0.7c0.5-0.1,0.7-0.7,0.7-1.5L90.1,38.1L90.1,38.1z M84,41L84,41c0.1,0.4,0.3,0.8,0.6,1
	s0.7,0.3,1.1,0.3c0.4,0,0.7-0.1,1.2-0.4c0.5-0.2,0.7-0.4,0.9-0.4s0.4,0.1,0.5,0.2c0.2,0.2,0.2,0.3,0.2,0.5c0,0.4-0.3,0.7-1,1.1
	c-0.6,0.3-1.3,0.5-2,0.5c-1,0-1.8-0.3-2.5-1c-0.6-0.6-0.9-1.5-0.9-2.5c0-0.9,0.3-1.8,0.9-2.4c0.6-0.7,1.4-1.1,2.3-1.1
	c0.9,0,1.7,0.4,2.4,1.1c0.6,0.7,0.9,1.4,0.9,2.2c0,0.5-0.3,0.8-0.8,0.8L84,41L84,41z M86.8,39.8c-0.1-0.9-0.6-1.4-1.5-1.4
	c-0.4,0-0.7,0.1-1,0.4c-0.3,0.3-0.4,0.6-0.5,1H86.8z M82,44.6L82,44.6c0,0.3-0.1,0.5-0.3,0.7s-0.4,0.3-0.7,0.3s-0.5-0.1-0.7-0.3
	S80,44.9,80,44.6v-0.9h-3.9v0.9c0,0.3-0.1,0.5-0.3,0.7s-0.4,0.3-0.7,0.3c-0.3,0-0.5-0.1-0.7-0.3s-0.3-0.4-0.3-0.7v-1.5
	c0-0.3,0.1-0.5,0.3-0.7c0.2-0.2,0.4-0.3,0.7-0.3h0.1c0.3-1,0.5-2.4,0.5-4.1c0-0.7,0.3-1,0.9-1h3.2c0.3,0,0.5,0.1,0.7,0.3
	s0.3,0.4,0.3,0.7v4.1h0.1c0.3,0,0.5,0.1,0.7,0.3s0.3,0.4,0.3,0.7L82,44.6L82,44.6z M79.3,38.5h-1.5c0,1.5-0.2,2.8-0.5,3.7h2V38.5z
	 M65.5,41L65.5,41c0.1,0.4,0.3,0.8,0.6,1c0.3,0.2,0.7,0.3,1.1,0.3s0.7-0.1,1.2-0.4c0.5-0.2,0.7-0.4,0.9-0.4c0.2,0,0.4,0.1,0.5,0.2
	C70,41.9,70,42,70,42.2c0,0.4-0.3,0.7-1,1.1c-0.6,0.3-1.3,0.5-2,0.5c-1,0-1.8-0.3-2.5-1c-0.6-0.6-0.9-1.5-0.9-2.5
	c0-0.9,0.3-1.8,0.9-2.4c0.6-0.7,1.4-1.1,2.3-1.1s1.7,0.4,2.4,1.1c0.6,0.7,0.9,1.4,0.9,2.2c0,0.5-0.3,0.8-0.8,0.8L65.5,41L65.5,41z
	 M68.3,39.8c-0.1-0.9-0.6-1.4-1.5-1.4c-0.4,0-0.7,0.1-1,0.4c-0.3,0.3-0.4,0.6-0.5,1H68.3z M63.4,38c0,0.2-0.1,0.4-0.2,0.6
	c-0.1,0.2-0.3,0.3-0.5,0.3c-0.1,0-0.4-0.1-0.7-0.2c-0.3-0.1-0.6-0.2-0.8-0.2c-0.5,0-0.9,0.2-1.1,0.6c-0.2,0.3-0.4,0.8-0.4,1.3
	s0.1,0.9,0.4,1.2c0.3,0.4,0.7,0.6,1.1,0.6c0.2,0,0.4-0.1,0.8-0.2c0.3-0.1,0.5-0.2,0.6-0.2c0.2,0,0.4,0.1,0.6,0.2
	c0.2,0.2,0.2,0.3,0.2,0.6c0,0.4-0.3,0.7-0.9,1c-0.4,0.2-0.9,0.3-1.4,0.3c-1,0-1.7-0.3-2.4-1c-0.6-0.7-0.9-1.5-0.9-2.5
	c0-0.9,0.3-1.8,0.9-2.4c0.6-0.7,1.4-1.1,2.3-1.1c0.5,0,1,0.1,1.4,0.2C63.1,37.4,63.4,37.7,63.4,38 M51.1,35.7L51.1,35.7
	c0-0.6,0.3-0.9,1-0.9h2.4c0.7,0,1.2,0.2,1.7,0.6c0.5,0.4,0.7,1,0.7,1.6c0,0.9-0.4,1.5-1.2,1.8l0,0c0.5,0.1,1,0.3,1.4,0.7
	s0.6,0.9,0.6,1.4c0,0.9-0.3,1.5-0.8,2s-1.2,0.7-2.1,0.7h-2.6c-0.3,0-0.5-0.1-0.7-0.3s-0.3-0.4-0.3-0.7L51.1,35.7L51.1,35.7z
	 M52.9,38.3L52.9,38.3h1c0.7,0,1-0.3,1-1c0-0.3-0.1-0.5-0.3-0.7c-0.2-0.2-0.4-0.2-0.7-0.2h-1V38.3z M52.9,42.1h1.5
	c0.4,0,0.6-0.1,0.8-0.3c0.2-0.2,0.3-0.5,0.3-0.8c0-0.7-0.4-1-1.3-1h-1.3V42.1z M148.3,13.2L148.3,13.2h2.8c1,0,1.9,0.2,2.6,0.5
	c0.7,0.3,1.2,0.7,1.6,1.3c0.4,0.6,0.6,1.2,0.7,2c0.1,0.8,0,1.6-0.1,2.5c-0.2,0.9-0.4,1.6-0.8,2.4c-0.4,0.7-0.8,1.4-1.4,1.9
	c-0.6,0.6-1.2,1-2,1.3s-1.6,0.5-2.6,0.5H146L148.3,13.2z M171.1,25.9L171.1,25.9c-1,0-1.8-0.2-2.4-0.5c-0.6-0.3-1.1-0.8-1.5-1.4
	c-0.4-0.6-0.6-1.3-0.7-2.1c-0.1-0.8,0-1.6,0.1-2.5c0.2-0.9,0.4-1.7,0.8-2.5c0.4-0.8,0.9-1.5,1.5-2.1s1.3-1.1,2-1.4
	c0.8-0.3,1.6-0.5,2.6-0.5c0.9,0,1.7,0.2,2.4,0.5c0.6,0.4,1.1,0.8,1.5,1.4c0.4,0.6,0.6,1.3,0.7,2.1c0.1,0.8,0.1,1.6-0.1,2.5
	c-0.2,0.9-0.4,1.7-0.8,2.5c-0.4,0.8-0.9,1.5-1.4,2.1c-0.6,0.6-1.3,1.1-2,1.4C173,25.7,172.1,25.9,171.1,25.9 M170.4,29.8
	c1.2,0,2.4-0.2,3.6-0.5c1.1-0.3,2.2-0.8,3.2-1.5c1-0.6,1.8-1.4,2.6-2.2c0.8-0.9,1.4-1.8,1.9-2.9c0.5-1,0.9-2.2,1.1-3.3
	c0.2-1.2,0.3-2.2,0.1-3.3c-0.1-1-0.4-2-0.9-2.9s-1-1.6-1.8-2.3c-0.7-0.6-1.6-1.1-2.6-1.5c-1-0.3-2.1-0.5-3.3-0.5s-2.4,0.2-3.5,0.5
	s-2.2,0.8-3.1,1.4c-1,0.6-1.8,1.4-2.6,2.2c-0.8,0.9-1.4,1.8-1.9,2.9c-0.5,1-0.9,2.2-1.1,3.3c-0.2,1.2-0.3,2.3-0.1,3.3
	c0.1,1,0.4,2,0.9,2.9c0.4,0.9,1,1.6,1.8,2.2c0.7,0.6,1.6,1.1,2.6,1.5C168.1,29.6,169.2,29.8,170.4,29.8 M181.4,27.1
	c0,0.1-0.1,0.2-0.1,0.2c0,0.1,0,0.2,0,0.2c-0.1,0.4,0,0.8,0.1,1.1s0.3,0.5,0.6,0.7s0.7,0.2,1.1,0.2c0.5,0,0.9-0.1,1.3-0.2
	c0.4-0.1,0.6-0.4,0.9-0.7c0.2-0.3,0.4-0.7,0.6-1.1l3.9-11.5h0.1l1.4,11.8c0,0.2,0.1,0.5,0.2,0.7c0.1,0.2,0.3,0.5,0.6,0.6
	c0.3,0.2,0.7,0.3,1.3,0.3c0.5,0,1-0.1,1.4-0.3s0.7-0.4,0.9-0.6c0.2-0.2,0.4-0.5,0.5-0.7l5.7-11.7h0.1l-0.4,11.5c0,0.4,0,0.8,0.2,1.1
	c0.1,0.3,0.3,0.5,0.6,0.7c0.3,0.1,0.7,0.2,1.2,0.2c0.4,0,0.8-0.1,1.2-0.2c0.4-0.2,0.7-0.4,0.9-0.7c0.2-0.3,0.4-0.7,0.5-1.1
	c0-0.1,0-0.1,0-0.2c0-0.1,0-0.2,0-0.2l0.2-15.8c0-0.3-0.1-0.5-0.2-0.8s-0.3-0.5-0.5-0.7s-0.5-0.4-0.8-0.5s-0.7-0.2-1.1-0.2
	c-0.5,0-1,0.1-1.4,0.3c-0.5,0.2-0.9,0.4-1.2,0.8c-0.3,0.3-0.6,0.6-0.8,1l-5.7,11.2h-0.1l-1.5-11.2c0-0.3-0.2-0.7-0.4-1
	s-0.5-0.6-0.9-0.8s-0.8-0.3-1.3-0.3c-0.4,0-0.8,0.1-1.2,0.2c-0.4,0.1-0.7,0.3-1,0.5s-0.6,0.4-0.8,0.7s-0.4,0.5-0.5,0.8L181.4,27.1z
	 M7.7,4L7.7,4L0.8,7.9C0,8.4-0.3,9.4,0.2,10.2s1.5,1.1,2.3,0.6l5.3-3L7.7,4L7.7,4z M12.5,13L12.5,13h5c0.6,0,1.1,0.5,1.1,1.1v5
	c0,0.6-0.5,1.1-1.1,1.1h-5c-0.6,0-1.1-0.5-1.1-1.1v-5C11.4,13.5,11.9,13,12.5,13 M25.3,13.5L25.3,13.5c0-0.8-0.7-1.5-1.5-1.5
	s-1.5,0.7-1.5,1.5v13H7.7v-13C7.7,12.7,7,12,6.2,12s-1.5,0.7-1.5,1.5V28c0,0.8,0.7,1.5,1.5,1.5h17.6c0.8,0,1.5-0.7,1.5-1.5V13.5z
	 M29.8,10.3C30.3,9.5,30,8.5,29.2,8L15,0l-4.1,2.3v3.9L15,3.9L27.5,11C28.3,11.4,29.3,11.1,29.8,10.3 M141.2,27.3
	c-0.1,0.4-0.1,0.7,0,1s0.3,0.5,0.5,0.7s0.4,0.3,0.7,0.4c0.3,0.1,0.5,0.1,0.8,0.1h5.3c1.6,0,3-0.2,4.4-0.7c1.3-0.5,2.6-1.1,3.6-2
	c1.1-0.9,2-1.9,2.7-3.1c0.7-1.2,1.2-2.5,1.5-4c0.3-1.6,0.3-3,0.1-4.3s-0.7-2.4-1.5-3.3c-0.7-0.9-1.7-1.6-2.9-2.1s-2.7-0.7-4.4-0.7
	h-5c-0.5,0-0.9,0.1-1.3,0.3c-0.4,0.2-0.7,0.4-1,0.8c-0.3,0.3-0.4,0.7-0.5,1.1L141.2,27.3z M187.9,43.9c-0.3,0-0.5-0.1-0.7-0.3
	s-0.3-0.4-0.3-0.7s0.1-0.5,0.3-0.7s0.4-0.3,0.7-0.3s0.5,0.1,0.7,0.3s0.3,0.4,0.3,0.7s-0.1,0.5-0.3,0.7S188.2,43.9,187.9,43.9"/>
<path class="st1" clip-rule="evenodd" fill-rule="evenodd" fill="#FFA300" d="M12.9,14.1h4c0.3,0,0.5,0.2,0.5,0.5v4c0,0.3-0.2,0.5-0.5,0.5h-4c-0.3,0-0.5-0.2-0.5-0.5v-4
	C12.5,14.3,12.7,14.1,12.9,14.1"/>
<path class="st2" fill="#E56B00" clip-rule="evenodd" fill-rule="evenodd" d="M243.8,24c1,0,1.5,0.4,1.5,1.3c0,0.4-0.1,0.7-0.4,1s-0.6,0.4-1,0.4h-8c-0.5,0-1-0.1-1.3-0.4
	c-0.3-0.3-0.4-0.6-0.4-1.1c0-0.4,0.1-0.8,0.4-1.2l6.6-9.2h-5.4c-1,0-1.4-0.4-1.4-1.3c0-0.4,0.1-0.7,0.4-1s0.6-0.4,1-0.4h7.5
	c0.6,0,1,0.2,1.3,0.5s0.4,0.6,0.4,1c0,0.5-0.2,0.9-0.4,1.3l-6.5,9.1L243.8,24L243.8,24z M222.1,13.5c0-0.4,0.1-0.8,0.4-1.1
	s0.7-0.4,1.1-0.4s0.8,0.1,1.1,0.4c0.3,0.3,0.4,0.6,0.4,1.1v4.4l5-5.3c0.3-0.4,0.7-0.6,1.2-0.6c0.4,0,0.8,0.1,1,0.4
	c0.3,0.3,0.5,0.6,0.5,1.1s-0.3,1-1,1.6l-3.9,3.8l4.7,4.9c0.6,0.6,0.9,1.1,0.9,1.6s-0.2,0.8-0.5,1.1c-0.3,0.2-0.7,0.3-1.1,0.3
	s-0.9-0.3-1.5-1l-5.3-5.7v5.2c0,0.4-0.1,0.8-0.4,1c-0.3,0.3-0.6,0.4-1.1,0.4s-0.8-0.1-1.1-0.4c-0.3-0.3-0.4-0.6-0.4-1.1L222.1,13.5
	L222.1,13.5z M220.4,8.8h26.1c1.3,0,2.3,1,2.3,2.3v16.3c0,1.3-1,2.3-2.3,2.3h-26.1c-1.3,0-2.3-1-2.3-2.3V11.1
	C218.1,9.9,219.2,8.8,220.4,8.8 M130.6,25.7L130.6,25.7c-0.9,0-1.8-0.2-2.5-0.5s-1.3-0.8-1.8-1.4c-0.5-0.6-0.8-1.3-1-2.1
	s-0.3-1.6-0.3-2.5s0.1-1.7,0.4-2.4c0.2-0.8,0.6-1.5,1.1-2.1s1.1-1.1,1.8-1.4c0.7-0.3,1.5-0.5,2.5-0.5c0.9,0,1.8,0.2,2.5,0.5
	s1.3,0.8,1.8,1.4c0.5,0.6,0.8,1.3,1.1,2.1c0.2,0.8,0.4,1.6,0.4,2.4c0,0.9-0.1,1.7-0.3,2.5s-0.6,1.5-1,2.1c-0.5,0.6-1.1,1.1-1.8,1.4
	C132.4,25.6,131.5,25.7,130.6,25.7 M100.4,27.3c0,0.5,0.1,0.9,0.3,1.2s0.5,0.6,0.8,0.7c0.3,0.2,0.7,0.3,1.2,0.3
	c0.4,0,0.8-0.1,1.1-0.3s0.6-0.4,0.8-0.7s0.3-0.7,0.3-1.2V16.8h0.1l9.5,11.7c0.1,0.2,0.3,0.3,0.5,0.5c0.2,0.1,0.4,0.3,0.7,0.3
	c0.2,0.1,0.5,0.1,0.6,0.1c0.4,0,0.8-0.1,1.2-0.3c0.3-0.2,0.6-0.4,0.8-0.7s0.3-0.7,0.3-1.2V11.3c0-0.5-0.1-0.9-0.3-1.2
	s-0.5-0.6-0.8-0.7c-0.3-0.2-0.7-0.3-1.2-0.3c-0.4,0-0.8,0.1-1.2,0.3c-0.3,0.2-0.6,0.4-0.8,0.7s-0.3,0.7-0.3,1.2v10.6h-0.1L104.4,10
	c-0.1-0.2-0.3-0.3-0.5-0.5c-0.2-0.1-0.5-0.3-0.7-0.3c-0.2-0.1-0.5-0.1-0.7-0.1c-0.4,0-0.8,0.1-1.2,0.3c-0.3,0.2-0.6,0.4-0.8,0.7
	s-0.3,0.7-0.3,1.2v16H100.4z M80.9,27.3c0,0.5,0.1,0.9,0.3,1.2s0.5,0.6,0.8,0.7c0.3,0.2,0.7,0.3,1.2,0.3c0.4,0,0.8-0.1,1.1-0.3
	s0.6-0.4,0.8-0.7s0.3-0.7,0.3-1.2v-6.2h8.3v6.1c0,0.5,0.1,0.9,0.3,1.2s0.5,0.6,0.8,0.7c0.3,0.2,0.7,0.3,1.2,0.3
	c0.4,0,0.8-0.1,1.2-0.3c0.3-0.2,0.6-0.4,0.8-0.7s0.3-0.7,0.3-1.2V11.3c0-0.5-0.1-0.9-0.3-1.2s-0.5-0.6-0.8-0.7
	c-0.3-0.2-0.7-0.3-1.2-0.3c-0.4,0-0.8,0.1-1.2,0.3c-0.3,0.2-0.6,0.4-0.8,0.7s-0.3,0.7-0.3,1.2v6h-8.3v-6c0-0.5-0.1-0.9-0.3-1.2
	s-0.5-0.6-0.8-0.7c-0.3-0.2-0.7-0.3-1.1-0.3c-0.4,0-0.8,0.1-1.2,0.3c-0.3,0.2-0.6,0.4-0.8,0.7s-0.3,0.7-0.3,1.2V27.3z M62.7,19.3
	c0,1.2,0.2,2.3,0.5,3.3s0.8,2,1.4,2.8c0.6,0.9,1.3,1.6,2.2,2.2c0.8,0.6,1.8,1.1,2.8,1.5c1,0.3,2.2,0.5,3.4,0.5c0.4,0,0.8,0,1.3-0.1
	c0.5,0,1-0.1,1.5-0.2c0.5-0.1,1-0.2,1.5-0.4s0.9-0.4,1.3-0.6c0.4-0.2,0.7-0.5,0.9-0.9c0.2-0.3,0.3-0.7,0.3-1.2c0-0.2,0-0.4-0.1-0.6
	c-0.1-0.2-0.2-0.4-0.4-0.6c-0.2-0.2-0.4-0.4-0.6-0.5c-0.2-0.1-0.5-0.2-0.9-0.2c-0.3,0-0.6,0.1-0.9,0.2c-0.3,0.1-0.6,0.3-1,0.4
	c-0.4,0.2-0.8,0.3-1.2,0.4c-0.5,0.1-1,0.2-1.6,0.2c-0.9,0-1.7-0.2-2.4-0.5c-0.7-0.3-1.3-0.8-1.8-1.3c-0.5-0.6-0.8-1.2-1.1-2
	c-0.2-0.7-0.4-1.5-0.4-2.4s0.1-1.7,0.4-2.4c0.2-0.8,0.6-1.4,1.1-2s1.1-1,1.8-1.4c0.7-0.3,1.5-0.5,2.4-0.5c0.6,0,1.2,0.1,1.6,0.2
	c0.4,0.1,0.8,0.2,1.2,0.3c0.3,0.1,0.6,0.2,0.9,0.3c0.3,0.1,0.6,0.1,0.9,0.2c0.4,0,0.7-0.1,1-0.3s0.5-0.4,0.6-0.7
	c0.2-0.3,0.2-0.6,0.2-0.9c0-0.4-0.1-0.8-0.3-1.1s-0.5-0.6-0.9-0.8s-0.8-0.4-1.2-0.6c-0.4-0.2-0.9-0.3-1.4-0.4
	C75.2,9.1,74.8,9,74.3,9s-0.9-0.1-1.2-0.1c-1.2,0-2.4,0.2-3.4,0.5c-1.1,0.3-2,0.8-2.8,1.4c-0.8,0.6-1.6,1.4-2.2,2.2
	c-0.6,0.9-1.1,1.8-1.4,2.8C62.9,17,62.7,18.1,62.7,19.3 M49.7,27.2c0,0.4,0.1,0.8,0.3,1.1c0.2,0.3,0.5,0.6,0.8,0.7
	c0.3,0.2,0.7,0.3,1.2,0.3h7.7c0.5,0,0.9-0.1,1.2-0.3c0.3-0.2,0.5-0.4,0.7-0.7s0.2-0.6,0.2-0.9c0-0.3-0.1-0.6-0.2-0.9
	c-0.2-0.3-0.4-0.5-0.7-0.7c-0.3-0.2-0.7-0.3-1.2-0.3h-5.5v-4.4h4.9c0.5,0,0.9-0.1,1.2-0.3c0.3-0.2,0.6-0.4,0.7-0.7
	c0.2-0.3,0.2-0.6,0.2-0.9c0-0.3-0.1-0.6-0.2-0.9c-0.2-0.3-0.4-0.5-0.7-0.7c-0.3-0.2-0.7-0.3-1.2-0.3h-4.9v-4.1h5.3
	c0.5,0,0.9-0.1,1.2-0.3c0.3-0.2,0.5-0.4,0.7-0.7s0.2-0.6,0.2-0.9c0-0.3-0.1-0.6-0.2-0.9c-0.2-0.3-0.4-0.5-0.7-0.7
	c-0.3-0.2-0.7-0.3-1.2-0.3h-7.4c-0.5,0-1,0.1-1.3,0.3s-0.6,0.5-0.8,0.9c-0.2,0.4-0.3,0.8-0.3,1.3C49.7,11.9,49.7,27.2,49.7,27.2z
	 M38.9,27.3c0,0.5,0.1,0.9,0.3,1.2c0.2,0.3,0.5,0.6,0.8,0.7c0.3,0.2,0.7,0.3,1.1,0.3s0.8-0.1,1.2-0.3c0.3-0.2,0.6-0.4,0.8-0.7
	c0.2-0.3,0.3-0.7,0.3-1.2V13.2h3.3c0.5,0,0.9-0.1,1.2-0.3c0.3-0.2,0.5-0.4,0.7-0.7c0.1-0.3,0.2-0.6,0.2-0.9c0-0.3-0.1-0.6-0.2-0.9
	c-0.2-0.3-0.4-0.5-0.7-0.7c-0.3-0.2-0.7-0.3-1.1-0.3h-11c-0.4,0-0.8,0.1-1.1,0.3c-0.3,0.2-0.5,0.4-0.7,0.7s-0.2,0.6-0.2,0.9
	c0,0.3,0.1,0.6,0.2,0.9c0.1,0.3,0.4,0.5,0.7,0.7s0.7,0.3,1.2,0.3h3V27.3z M130.6,29.6c1.2,0,2.4-0.2,3.4-0.5c1.1-0.3,2-0.8,2.8-1.5
	c0.8-0.6,1.6-1.4,2.2-2.2c0.6-0.9,1.1-1.8,1.4-2.8c0.3-1,0.5-2.1,0.5-3.3c0-1.1-0.2-2.2-0.5-3.3c-0.3-1-0.8-2-1.4-2.8
	c-0.6-0.9-1.3-1.6-2.2-2.2c-0.8-0.6-1.8-1.1-2.8-1.5c-1-0.3-2.2-0.5-3.4-0.5s-2.4,0.2-3.4,0.5s-2,0.8-2.8,1.4
	c-0.8,0.6-1.6,1.4-2.2,2.2c-0.6,0.9-1.1,1.8-1.4,2.8c-0.3,1-0.5,2.1-0.5,3.3s0.2,2.3,0.5,3.3s0.8,2,1.4,2.8c0.6,0.9,1.3,1.6,2.2,2.2
	c0.8,0.6,1.8,1.1,2.8,1.5C128.2,29.4,129.4,29.6,130.6,29.6 M212.4,25.1c1.2,0,2.1,0.9,2.1,2.1c0,1.2-0.9,2.1-2.1,2.1
	s-2.1-0.9-2.1-2.1C210.3,26.1,211.2,25.1,212.4,25.1"/>
</svg>
