<?xml version="1.0" encoding="utf-8"?>
<!-- Generator: Adobe Illustrator 24.0.2, SVG Export Plug-In . SVG Version: 6.00 Build 0)  -->
<svg version="1.1" id="Layer_1" xmlns="http://www.w3.org/2000/svg" xmlns:xlink="http://www.w3.org/1999/xlink" x="0px" y="0px"
	 viewBox="0 0 71.3 30" style="enable-background:new 0 0 71.3 30;" xml:space="preserve">
<g>
	<path fill-rule="evenodd" clip-rule="evenodd" fill="#D7210E" class="st0" d="M67.1,29.5h-13l1.4-7.6c0.2-1.3,1.5-2.4,2.8-2.4h13l-1.4,7.6C69.7,28.4,68.4,29.5,67.1,29.5L67.1,29.5z
		 M37.7,11.4l18.4,0.2c-1.5-2.6-2.9-4.3-4.5-5.2c-0.2,0.5-0.4,0.8-0.7,0.8V6.7c0.1,0,0.2-0.2,0.3-0.5C51,6.1,50.8,6,50.6,5.9
		l-0.4-0.1l0,0c-0.5-0.2-1.1-0.3-1.6-0.3c-3.2-0.2-6.9,1.7-11.8,4.6l-0.2-0.4c5-3,8.8-4.9,12.1-4.7c0.6,0,1.2,0.2,1.7,0.3
		c0.3-0.9,0.5-1.5,0.7-1.7c0.4-0.5,0.6-0.2,0.7,0.4c0.1,0.4,0.1,0.9,0,1.4c0,0.2,0,0.3-0.1,0.5c1.7,1,3.3,2.8,4.8,5.7h1.7v0.5h-1.5
		c0.2,0.4,0.4,0.7,0.6,1.1l-0.4,0.2c-0.2-0.5-0.5-0.9-0.7-1.4l-18.7-0.2L37.7,11.4z M48.3,29.5l0.2-1.1c-0.6,0.5-1.2,0.9-1.9,1.2
		S45.1,30,44.2,30c-2.3,0-4.2-0.7-5.6-2.2c-1.4-1.5-2.1-3.5-2.1-5.9c0-1,0.2-2,0.5-2.9s0.8-1.8,1.4-2.7c0.8-1.2,1.9-2,3.1-2.6
		c1.2-0.6,2.6-0.9,4-0.9c1.1,0,2.1,0.2,3.1,0.6c0.9,0.4,1.8,1,2.5,1.9l0.4-2.1h4l-3.3,16.5h-3.9V29.5z M45.6,16.1
		c-1.4,0-2.7,0.6-3.7,1.7c-1,1.1-1.6,2.4-1.6,4c0,1.4,0.4,2.5,1.2,3.3s1.9,1.3,3.2,1.3c1.5,0,2.7-0.6,3.7-1.7c1-1.1,1.5-2.5,1.5-4.1
		c0-1.3-0.4-2.4-1.2-3.2C47.9,16.5,46.9,16.1,45.6,16.1L45.6,16.1z M25.6,29.5L28.8,13h3.5l-0.4,2.2c0.7-0.9,1.5-1.6,2.4-2
		s2-0.7,3.3-0.7h0.1L37,16.4c-1.8,0-3.1,0.4-3.9,1.1c-0.8,0.7-1.4,1.9-1.8,3.7l-1.7,8.3H25.6z M17.2,16.1c-1.5,0-2.7,0.5-3.7,1.6
		S12,20.2,12,21.9c0,1.3,0.4,2.4,1.2,3.2s1.9,1.2,3.1,1.2c1.5,0,2.7-0.5,3.8-1.7c1-1.1,1.5-2.5,1.5-4.1c0-1.4-0.4-2.5-1.2-3.3
		C19.6,16.5,18.6,16.1,17.2,16.1L17.2,16.1z M8.2,21.9c0-1.4,0.3-2.8,0.8-4c0.6-1.3,1.4-2.4,2.4-3.3c0.8-0.7,1.7-1.3,2.7-1.6
		c1-0.4,2.1-0.6,3.3-0.6c2.4,0,4.3,0.7,5.8,2.2s2.3,3.4,2.3,5.7c0,1.3-0.2,2.6-0.7,3.7c-0.5,1.2-1.1,2.2-2,3.1
		C22,27.9,21,28.6,19.9,29c-1.1,0.5-2.3,0.7-3.7,0.7c-2.3,0-4.3-0.7-5.8-2.2C8.9,26.2,8.2,24.3,8.2,21.9L8.2,21.9z M0,29.5l3.4-17.4
		H0.2l0.9-4.6h3.2C4.7,4.9,5.6,3,7,1.8S10.5,0,13.2,0c0.4,0,1,0,1.8,0.1h0.1l-0.9,4.7h-0.1c-0.6-0.1-1.1-0.1-1.3-0.1
		c-1.1,0-1.9,0.2-2.4,0.6c-0.5,0.4-0.8,1.1-1,2.2h3.3l-0.9,4.6H8.5L5.1,29.5H0z M50.8,5.4c0.2,0.1,0.4,0.2,0.5,0.3
		c0-0.1,0-0.2,0.1-0.3c0.1-0.5,0.1-1,0-1.3c0-0.1,0-0.2,0-0.1C51.3,4.1,51.1,4.6,50.8,5.4L50.8,5.4z M53.7,9.2
		c0.2,0,0.5,0.2,0.5,0.4S54,10,53.8,10s-0.5-0.2-0.5-0.4S53.5,9.2,53.7,9.2L53.7,9.2z M36.8,10.9c-2.4,0.5-7,0.9-11.6,1
		c-4.7,0.1-9.3-0.1-11.5-0.6l0.2-0.4c2.2,0.5,6.7,0.7,11.3,0.6c4.7-0.1,9.3-0.4,11.6-1v-0.3h0.4v1.7h-0.4V10.9z M56.4,26.5
		c0.4,0,0.7,0.3,0.6,0.7c0,0.4-0.4,0.7-0.8,0.7c-0.4,0-0.7-0.3-0.6-0.7C55.7,26.8,56,26.5,56.4,26.5L56.4,26.5z M59.3,27.8h-1.5
		l1.2-6.2h1.5L59.3,27.8z M60,24.5l2.5-2.8h1.6l-2.5,2.8l1.5,3.3h-1.6L60,24.5z M65.4,26.6h2.7l-0.4,1.2h-4.3l0.2-1.1l3.5-3.9h-2.5
		l0.2-1.1h4.1l-0.2,1.1L65.4,26.6z"/>
</g>
</svg>
