<?xml version="1.0" encoding="utf-8"?>
<!-- Generator: Adobe Illustrator 24.0.2, SVG Export Plug-In . SVG Version: 6.00 Build 0)  -->
<svg version="1.1" id="Layer_1" xmlns="http://www.w3.org/2000/svg" xmlns:xlink="http://www.w3.org/1999/xlink" x="0px" y="0px"
	 viewBox="0 0 147.2 39.8" style="enable-background:new 0 0 147.2 39.8;" xml:space="preserve">
<g>
	<path class="st0" fill="#EB6502" d="M75.8,0.3c-19.5,0-39.2,0.2-58.7,1.8c-3.6,0.3-7.6,0.5-11.1,1C3,3.5,0.3,5.6,0.3,8.8V31c0,3.8,3.2,5.4,6.7,5.8
		c0.9,0.1,1.8,0.2,2.8,0.3c2.9,0.3,7.8,0.6,16,1.1c10.8,0.6,27.1,1.4,50,1.4c20.4,0,36.3-0.7,47.3-1.4c5.6-0.4,13.2-0.7,18.5-1.5
		c3-0.5,5.4-2.9,5.4-5.7V8.9c0-2.9-2.1-4.8-4.8-5.5C128.3,0,91.7,0.3,76.7,0.3H75.8z"/>
	<path fill="none" stroke="#FFFFFF" stroke-width="0.5" stroke-linecap="round"
		stroke-linejoin="round" stroke-miterlimit="22.926" class="st1" d="M75.8,0.3c-19.5,0-39.2,0.2-58.7,1.8c-3.6,0.3-7.6,0.5-11.1,1C3,3.5,0.3,5.6,0.3,8.8V31c0,3.8,3.2,5.4,6.7,5.8
		c0.9,0.1,1.8,0.2,2.8,0.3c2.9,0.3,7.8,0.6,16,1.1c10.8,0.6,27.1,1.4,50,1.4c20.4,0,36.3-0.7,47.3-1.4c5.6-0.4,13.2-0.7,18.5-1.5
		c3-0.5,5.4-2.9,5.4-5.7V8.9c0-2.9-2.1-4.8-4.8-5.5C128.3,0,91.7,0.3,76.7,0.3H75.8z"/>
	<path fill="#FFFFFF" class="st2" d="M99.8,15V9.9h1l1.2,3.6c0.1,0.3,0.2,0.6,0.2,0.8c0.1-0.2,0.2-0.5,0.3-0.8l1.2-3.5h0.9v5.1h-0.7v-4.3l-1.5,4.3
		h-0.6l-1.5-4.3v4.3h-0.5V15z M105.3,15l2-5.1h0.7l2.1,5.1h-0.8l-0.6-1.5h-2.1l-0.6,1.5H105.3z M106.8,12.9h1.7l-0.5-1.4
		c-0.2-0.4-0.3-0.8-0.4-1.1c-0.1,0.3-0.2,0.6-0.3,1L106.8,12.9z M110.6,9.9h3.3v0.6h-2.6V15h-0.7V9.9z M113.5,15l2-5.1h0.7l2.1,5.1
		h-0.8l-0.6-1.5h-2.1l-0.6,1.5H113.5z M114.8,12.9h1.7l-0.5-1.4c-0.2-0.4-0.3-0.8-0.4-1.1c-0.1,0.3-0.2,0.6-0.3,1L114.8,12.9z
		 M118.3,13.5l0.6-0.2c0,0.3,0.2,0.5,0.4,0.7s0.5,0.4,0.8,0.4c0.4,0,0.6-0.1,0.8-0.3s0.3-0.4,0.3-0.7s-0.1-0.5-0.3-0.7
		s-0.5-0.2-0.9-0.2h-0.3v-0.6c0.3,0,0.5,0,0.7-0.1c0.2,0,0.3-0.1,0.4-0.3c0.1-0.1,0.2-0.3,0.2-0.5s-0.1-0.4-0.3-0.6
		c-0.2-0.2-0.4-0.2-0.7-0.2s-0.5,0.1-0.7,0.2c-0.2,0.1-0.3,0.3-0.4,0.5c-0.1,0.2-0.1,0.4-0.1,0.5l-0.6-0.1c0.2-1.1,0.8-1.6,1.8-1.6
		c0.5,0,0.9,0.1,1.2,0.4c0.3,0.3,0.4,0.6,0.4,1c0,0.5-0.2,0.8-0.7,1.1c0.3,0.1,0.5,0.2,0.7,0.4s0.3,0.5,0.3,0.8
		c0,0.4-0.2,0.8-0.5,1.1s-0.8,0.4-1.4,0.4C119.3,15,118.7,14.5,118.3,13.5 M123,9.9h0.6v4l2.7-4h0.7V15h-0.6v-4l-2.7,4H123V9.9z
		 M128.1,15V9.9h0.7V12h2.6V9.9h0.7V15h-0.7v-2.4h-2.6V15H128.1z M133.3,9.9h0.7v2.2h1.2c0.8,0,1.3,0.1,1.6,0.4
		c0.3,0.3,0.4,0.6,0.4,1s-0.1,0.7-0.4,1s-0.8,0.4-1.5,0.4h-1.9v-5H133.3z M134,14.4h1.2c0.4,0,0.7-0.1,0.9-0.2
		c0.2-0.1,0.3-0.4,0.3-0.7c0-0.2-0.1-0.4-0.2-0.5s-0.3-0.2-0.4-0.3c-0.2,0-0.5-0.1-0.9-0.1H134V14.4z M137.6,9.9h0.7V15h-0.7V9.9z"
		/>
	<path fill-rule="evenodd" clip-rule="evenodd" fill="#43A03C" class="st3" d="M8.5,7.6c13.8-1.1,27.4-2,41-2.4c12.2-0.3,24.4-0.4,36.8-0.3c3.1,0,5.6,2.4,5.6,5.3v19c0,3.2-2.4,5.1-5.5,5.4
		c-1.2,0.1-2.3,0.2-3.4,0.2c-8.4,0.1-17,0-25.4-0.2c-16.4-0.4-32.7-1.2-49.4-2.4c-1.3-0.3-2.7-1.6-2.7-2.9V10.4
		C5.4,9,6.9,7.7,8.5,7.6"/>
	<path fill="#FFFFFF" class="st2" d="M100,17.4h0.7v4.5h2.7v-4.5h0.7v4.5h0.5v2h-0.6v-1.4h-4V17.4z M105.2,17.4h0.6v4l2.7-4h0.7v5.1h-0.6v-4l-2.7,4
		h-0.7V17.4z M112.2,18v-0.7h0.6V18c0.6,0,1.2,0.2,1.5,0.6c0.4,0.4,0.6,0.8,0.6,1.3s-0.2,1-0.5,1.3c-0.4,0.4-0.9,0.6-1.6,0.6v0.7
		h-0.6v-0.7c-0.6,0-1.1-0.2-1.5-0.6c-0.4-0.3-0.6-0.8-0.6-1.4c0-0.6,0.2-1,0.6-1.4C111.1,18.2,111.6,18,112.2,18 M112.8,18.6v2.7
		c0.4,0,0.8-0.1,1-0.4c0.3-0.2,0.4-0.6,0.4-1s-0.1-0.7-0.4-0.9C113.6,18.7,113.3,18.6,112.8,18.6 M112.2,18.6c-0.4,0-0.8,0.1-1,0.4
		c-0.3,0.2-0.4,0.5-0.4,1c0,0.4,0.1,0.7,0.4,1c0.3,0.2,0.6,0.4,1,0.4V18.6z M115.8,22.5v-5.1h1.9c0.3,0,0.6,0,0.8,0
		c0.3,0,0.5,0.1,0.6,0.2c0.2,0.1,0.3,0.3,0.4,0.5c0.1,0.2,0.2,0.4,0.2,0.7c0,0.4-0.1,0.8-0.4,1.1c-0.3,0.3-0.8,0.5-1.5,0.5h-1.3v2.1
		H115.8z M116.3,19.8h1.3c0.4,0,0.7-0.1,0.9-0.2c0.2-0.2,0.3-0.4,0.3-0.7c0-0.2-0.1-0.4-0.2-0.6c-0.1-0.1-0.2-0.2-0.4-0.3
		c-0.1,0-0.3,0-0.6,0h-1.3V19.8z M120.1,20c0-0.8,0.2-1.5,0.7-2s1-0.7,1.8-0.7c0.5,0,0.9,0.1,1.3,0.3c0.4,0.2,0.7,0.5,0.9,0.9
		s0.3,0.9,0.3,1.4s-0.1,1-0.3,1.4s-0.5,0.7-0.9,0.9s-0.8,0.3-1.2,0.3c-0.5,0-0.9-0.1-1.3-0.3c-0.4-0.2-0.7-0.6-0.9-1
		C120.2,20.8,120.1,20.4,120.1,20 M120.8,20c0,0.6,0.2,1.1,0.5,1.5s0.7,0.5,1.3,0.5c0.5,0,0.9-0.2,1.3-0.5c0.3-0.4,0.5-0.9,0.5-1.5
		c0-0.4-0.1-0.8-0.2-1.1c-0.1-0.3-0.3-0.5-0.6-0.7s-0.6-0.3-0.9-0.3c-0.5,0-0.9,0.2-1.2,0.5C121,18.7,120.8,19.2,120.8,20
		 M125.8,22.5v-5.1h1.9c0.4,0,0.7,0.1,0.9,0.2c0.2,0.1,0.4,0.3,0.6,0.5c0.1,0.2,0.2,0.4,0.2,0.7c0,0.2-0.1,0.4-0.2,0.6
		c-0.1,0.2-0.3,0.3-0.5,0.5c0.3,0.1,0.5,0.2,0.7,0.5c0.2,0.2,0.2,0.5,0.2,0.8c0,0.2-0.1,0.5-0.1,0.7c-0.1,0.2-0.2,0.4-0.4,0.5
		c-0.1,0.1-0.3,0.2-0.6,0.2c-0.2,0.1-0.5,0.1-0.8,0.1h-1.9V22.5z M126.5,19.5h1.1c0.3,0,0.5,0,0.6-0.1c0.2-0.1,0.3-0.1,0.4-0.3
		c0.1-0.1,0.1-0.3,0.1-0.4c0-0.2,0-0.3-0.1-0.4c-0.1-0.1-0.2-0.2-0.4-0.3c-0.1-0.1-0.4-0.1-0.8-0.1h-1L126.5,19.5L126.5,19.5z
		 M126.5,21.9h1.3c0.2,0,0.4,0,0.5,0c0.2,0,0.3-0.1,0.4-0.1c0.1-0.1,0.2-0.2,0.3-0.3s0.1-0.3,0.1-0.4c0-0.2-0.1-0.4-0.1-0.5
		c-0.1-0.1-0.2-0.2-0.4-0.3c-0.2-0.1-0.4-0.1-0.7-0.1h-1.2v1.7H126.5z M130.1,20c0-0.8,0.2-1.5,0.7-2c0.4-0.5,1-0.7,1.8-0.7
		c0.5,0,0.9,0.1,1.3,0.3c0.4,0.2,0.7,0.5,0.9,0.9c0.2,0.4,0.3,0.9,0.3,1.4s-0.1,1-0.3,1.4c-0.2,0.4-0.5,0.7-0.9,0.9
		s-0.8,0.3-1.2,0.3c-0.5,0-0.9-0.1-1.3-0.3s-0.7-0.6-0.9-1C130.3,20.8,130.1,20.4,130.1,20 M130.9,20c0,0.6,0.2,1.1,0.5,1.5
		c0.3,0.4,0.7,0.5,1.2,0.5s0.9-0.2,1.3-0.5c0.3-0.4,0.5-0.9,0.5-1.5c0-0.4-0.1-0.8-0.2-1.1s-0.3-0.5-0.6-0.7
		c-0.3-0.2-0.6-0.3-0.9-0.3c-0.5,0-0.9,0.2-1.2,0.5C131.1,18.7,130.9,19.2,130.9,20 M135.9,17.4h0.6v4l2.7-4h0.7v5.1h-0.6v-4l-2.7,4
		h-0.7V17.4z M138.5,16.1h0.4c0,0.3-0.1,0.5-0.3,0.7c-0.2,0.2-0.4,0.2-0.7,0.2c-0.3,0-0.5-0.1-0.7-0.2c-0.2-0.2-0.3-0.4-0.3-0.7h0.4
		c0,0.2,0.1,0.3,0.2,0.4c0.1,0.1,0.2,0.1,0.4,0.1c0.2,0,0.3,0,0.4-0.1C138.4,16.4,138.4,16.3,138.5,16.1"/>
	<path fill="#FFFFFF" class="st2" d="M101.3,30.1v-4.5h-1.7V25h4v0.6h-1.7v4.5H101.3z M104.3,30.1V25h3.7v0.6h-3v1.6h2.8v0.6H105v1.7h3.1v0.6
		L104.3,30.1L104.3,30.1z M108.5,30.1l2-2.7l-1.7-2.4h0.8l0.9,1.3c0.2,0.3,0.3,0.5,0.4,0.6c0.1-0.2,0.2-0.4,0.4-0.6l1-1.4h0.7
		l-1.8,2.4L113,30h-0.8l-1.3-1.8c-0.1-0.1-0.1-0.2-0.2-0.3c-0.1,0.2-0.2,0.3-0.3,0.4l-1.3,1.8H108.5z M113.8,30.1V25h0.7v2.1h2.6V25
		h0.7v5.1h-0.7v-2.4h-2.6v2.4H113.8z M119,25h0.6v4l2.7-4h0.7v5.1h-0.6v-4l-2.7,4H119V25z M124.1,25h0.7v2.2c0.3,0,0.5-0.1,0.7-0.2
		c0.1-0.1,0.3-0.4,0.5-0.9c0.1-0.3,0.3-0.6,0.4-0.7c0.1-0.1,0.2-0.3,0.4-0.3c0.2-0.1,0.4-0.1,0.6-0.1c0.3,0,0.4,0,0.4,0v0.6h-0.1
		c-0.1,0-0.1,0-0.1,0c-0.2,0-0.4,0.1-0.5,0.2c-0.1,0.1-0.2,0.3-0.4,0.7s-0.3,0.7-0.4,0.8c-0.1,0.1-0.3,0.2-0.4,0.3
		c0.3,0.1,0.7,0.4,1,0.9l1.1,1.7h-0.8l-0.9-1.4c-0.2-0.4-0.4-0.6-0.6-0.8c-0.2-0.1-0.4-0.2-0.6-0.2v2.4h-0.7V25H124.1z M128.1,25
		h0.6v4l2.7-4h0.7v5.1h-0.6v-4l-2.7,4h-0.7V25z"/>
	<path fill="none" stroke="#FFFFFF" stroke-width="0.5" stroke-linecap="round"
		stroke-linejoin="round" stroke-miterlimit="22.926"  class="st1" d="M8.5,7.6c13.8-1.1,27.4-2,41-2.4c12.2-0.3,24.4-0.4,36.8-0.3c3.1,0,5.6,2.4,5.6,5.3v19c0,3.2-2.4,5.1-5.5,5.4
		c-1.2,0.1-2.3,0.2-3.4,0.2c-8.4,0.1-17,0-25.4-0.2c-16.4-0.4-32.7-1.2-49.4-2.4c-1.3-0.3-2.7-1.6-2.7-2.9V10.4
		C5.4,9,6.9,7.7,8.5,7.6z"/>
	<path fill="#6E6F6D" class="st4" d="M74.3,28.4c-1,0-1.9-0.7-2.2-1.7c-0.1-0.3-0.1-0.6-0.1-1V14.6c0-0.6,0.1-1.1,0.4-1.6c0.2-0.4,0.6-0.8,1-1
		s0.9-0.4,1.5-0.4h4.8c1.1,0,2.1,0.2,3,0.5s1.6,0.8,2.1,1.5c0.6,0.7,0.9,1.4,1.2,2.4c0.6,2.4-0.9,5.3-3.7,5.8l2.4,2.2
		c0.2,0.1,1.1,1,1.4,1.6c0.2,0.3,0.2,0.7,0.1,1.1c-0.3,1.1-1.2,1.6-2.2,1.6c-0.4,0-1-0.1-1.4-0.5c-1.8-1.5-4.8-4.2-6.1-5.4v3.3
		c0,0.2,0,0.5-0.1,0.7c0,0.3-0.1,0.6-0.2,0.8C76,27.9,75.3,28.4,74.3,28.4 M15.5,14.6c0.4-0.9,0.9-1.6,1.6-2.1
		c0.7-0.5,1.5-0.8,2.4-0.8s1.7,0.2,2.4,0.7s1.2,1.2,1.6,2.1l3.9,10c0.2,0.5,0.5,1.1,0.5,1.5c0.3,2.3-2.2,3-3.7,1.9
		c-0.4-0.3-0.7-0.8-1-1.4l-0.4-0.9H16l-0.4,0.9c-0.2,0.6-0.5,1-1,1.4c-0.6,0.5-1.5,0.6-2.2,0.4c-0.8-0.3-1.4-1-1.4-2
		c0-0.7,0.3-1.2,0.6-1.8L15.5,14.6z M19.2,17.1l-1.5,4c0,0,0,0.1-0.1,0.2c0,0.1,0,0.2,0.2,0.2h3.2c0.2,0,0.4,0,0.3-0.3v-0.1
		l-1.5-3.8l-0.1-0.2l0,0c-0.1-0.2-0.1-0.2-0.2-0.2C19.3,16.8,19.2,16.9,19.2,17.1 M31.8,28.4c-0.8,0-1.6-0.3-2.1-0.9
		c-0.6-0.6-0.9-1.3-0.9-2.2V14.6c0-0.9,0.1-1.8,0.7-2.3c0.4-0.4,0.9-0.6,1.5-0.6c0.8,0,1.7,0.4,2.1,1.2c0.3,0.5,0.3,1.3,0.3,1.8v9.2
		h3.7c0.3,0,1.3,0,2.1,0.1c1.3,0.1,2.2,1.2,2.1,2.5c-0.1,0.6-0.4,1.3-1.2,1.7c-0.3,0.2-0.7,0.3-1.1,0.3h-7.2V28.4z M42.5,24.9
		c0.1-0.5,0.3-0.9,0.6-1.3c0.4-0.4,0.9-0.6,1.5-0.6c0.4,0,0.8,0.1,1.2,0.2c0.4,0.1,0.8,0.3,1.4,0.5c0.5,0.2,1,0.4,1.4,0.5
		s0.8,0.2,1.2,0.2c0.7,0,1.1-0.2,1.4-0.4c0.1-0.1,0.2-0.3,0.2-0.5c0-0.3-0.1-0.6-0.4-0.7c-0.3-0.2-0.9-0.4-1.8-0.7
		c-1-0.3-1.6-0.6-2-0.7c-1-0.4-1.8-0.7-2.4-1.1c-0.6-0.3-1-0.8-1.3-1.3s-0.5-1.2-0.5-2c0-0.9,0.3-1.7,0.9-2.6c0.6-0.8,1.4-1.5,2.5-2
		s2.3-0.7,3.7-0.7c0.8,0,1.7,0.1,2.7,0.4c1,0.2,1.8,0.6,2.5,1.1s1,1.1,1,1.8c0,0.6-0.2,1.1-0.6,1.4C55.2,16.8,54.7,17,54,17
		c-0.2,0-0.6-0.1-1-0.2c-0.4-0.1-0.8-0.3-1.2-0.4c-0.3-0.1-0.7-0.3-1.1-0.4c-0.4-0.1-0.7-0.2-1.1-0.2c-0.4,0-0.7,0.1-1,0.2
		c-0.5,0.3-0.5,0.9,0,1.3c0.2,0.2,0.5,0.3,0.9,0.5c0.9,0.3,2,0.7,3.1,1.1c1.2,0.4,2.1,0.9,2.9,1.6c0.8,0.7,1.2,1.6,1.2,2.7
		c0,1-0.3,1.9-1,2.7c-0.6,0.8-1.5,1.4-2.5,1.8c-1,0.4-2.2,0.6-3.5,0.6c-2.3,0-4.1-0.4-5.6-1.2C43,26.7,42.3,26,42.5,24.9 M57.8,26.6
		c-0.2-0.3-0.2-0.7-0.2-1.1V14.2c0-0.5,0-0.9,0.2-1.2c0.2-0.5,0.7-0.9,1.3-1.1c0.3-0.1,0.7-0.2,1-0.2h8.1c1.4,0,2.4,0.9,2.6,1.9
		c0.2,1.1-0.5,2.4-2.6,2.4h-6.2v1.8h6.3c0.3,0,0.7,0.1,1,0.2c0.8,0.2,1.5,1,1.5,1.9c0,0.6-0.2,1.1-0.7,1.6s-1.2,0.7-1.9,0.7H62V24
		h6.4c1.5,0,2.3,0.9,2.5,1.8c0.2,1.2-0.6,2.5-2.4,2.5h-8c-0.5,0-1-0.2-1.5-0.5C58.5,27.6,58.2,27.2,57.8,26.6 M76.5,18.2h4.3
		c1.3,0,1.3-2.2,0-2.2h-4.3V18.2z"/>
	<path fill="#FFFFFF" class="st2" d="M74.2,28.1c-1,0-1.9-0.7-2.2-1.7c-0.1-0.3-0.1-0.6-0.1-1V14.3c0-0.6,0.1-1.1,0.4-1.6c0.2-0.4,0.6-0.8,1-1
		s0.9-0.4,1.5-0.4h4.8c1.1,0,2.1,0.2,3,0.5s1.6,0.8,2.1,1.5c0.6,0.7,1,1.4,1.2,2.4c0.6,2.4-0.9,5.3-3.7,5.8l2.4,2.2
		c0.2,0.2,1.1,1,1.4,1.6c0.2,0.3,0.2,0.7,0.1,1.1c-0.3,1.1-1.2,1.6-2.2,1.6c-0.4,0-1-0.1-1.4-0.5c-1.8-1.5-4.8-4.2-6.1-5.4v3.3
		c0,0.2,0,0.5-0.1,0.7c0,0.3-0.1,0.5-0.2,0.8C75.8,27.6,75.2,28.2,74.2,28.1 M15.3,14.3c0.4-0.9,0.9-1.6,1.6-2.1
		c0.7-0.5,1.5-0.7,2.4-0.7s1.7,0.2,2.4,0.7s1.2,1.2,1.6,2.1l3.9,10c0.2,0.5,0.5,1.1,0.5,1.5c0.3,2.3-2.2,3-3.7,1.9
		c-0.4-0.3-0.7-0.8-1-1.4l-0.4-0.9h-6.7l-0.4,0.9c-0.2,0.6-0.5,1-1,1.4c-0.6,0.5-1.5,0.6-2.2,0.4c-0.8-0.3-1.4-1-1.4-2
		c0-0.7,0.3-1.2,0.6-1.8L15.3,14.3z M19,16.8l-1.5,4c0,0,0,0.1-0.1,0.2c0,0.1,0,0.2,0.2,0.2h3.2c0.2,0,0.4,0,0.3-0.3l-0.1-0.1
		L19.4,17l-0.1-0.2l0,0c-0.1-0.2-0.1-0.2-0.2-0.2C19.2,16.5,19.1,16.6,19,16.8 M31.8,28.1c-0.8,0-1.6-0.3-2.1-0.9
		c-0.6-0.6-0.8-1.3-0.8-2.2V14.3c0-0.9,0.1-1.8,0.7-2.3c0.4-0.4,0.9-0.6,1.5-0.7c0.8,0,1.7,0.4,2.1,1.2c0.3,0.5,0.3,1.3,0.3,1.8v9.2
		h3.7c0.3,0,1.3,0,2.1,0.1c1.3,0.1,2.3,1.2,2.1,2.5c-0.1,0.6-0.4,1.3-1.2,1.7c-0.3,0.2-0.7,0.3-1.1,0.3L31.8,28.1L31.8,28.1z
		 M42.3,24.6c0.1-0.5,0.3-0.9,0.6-1.3c0.4-0.4,0.9-0.6,1.5-0.6c0.4,0,0.8,0.1,1.2,0.2c0.4,0.1,0.8,0.3,1.4,0.5
		c0.5,0.2,1,0.4,1.4,0.5s0.8,0.2,1.2,0.2c0.7,0,1.1-0.2,1.4-0.4c0.1-0.1,0.2-0.3,0.2-0.5c0-0.3-0.1-0.6-0.4-0.7
		c-0.3-0.2-0.9-0.4-1.8-0.7c-1-0.3-1.6-0.6-2-0.7c-1-0.4-1.8-0.7-2.4-1.1c-0.6-0.4-1-0.8-1.4-1.3c-0.3-0.5-0.5-1.2-0.5-2
		c0-0.9,0.3-1.7,0.9-2.6c0.6-0.8,1.4-1.5,2.5-2s2.3-0.7,3.6-0.7c0.8,0,1.7,0.1,2.7,0.4c1,0.2,1.8,0.6,2.5,1.1s1,1.1,1,1.8
		c0,0.6-0.2,1.1-0.6,1.4c-0.4,0.4-0.9,0.5-1.6,0.5c-0.2,0-0.6-0.1-1-0.2c-0.4-0.1-0.8-0.3-1.1-0.4c-0.4-0.1-0.7-0.3-1.1-0.4
		c-0.4-0.1-0.7-0.2-1.1-0.2c-0.4,0-0.7,0.1-1,0.3c-0.5,0.3-0.5,0.9,0,1.3c0.2,0.2,0.5,0.3,0.9,0.5c0.9,0.3,2,0.7,3.1,1.1
		c1.2,0.4,2.1,0.9,2.9,1.6c0.8,0.7,1.2,1.6,1.2,2.7c0,1-0.3,1.9-1,2.7c-0.6,0.8-1.5,1.4-2.5,1.8c-1.1,0.4-2.2,0.6-3.5,0.6
		c-2.2,0-4.1-0.4-5.6-1.2C42.8,26.5,42.2,25.8,42.3,24.6 M57.8,26.3c-0.2-0.3-0.2-0.7-0.2-1.1V13.9c0-0.5,0-0.9,0.2-1.2
		c0.2-0.5,0.7-0.9,1.3-1.1c0.3-0.1,0.7-0.2,1-0.2h8.1c1.4,0,2.4,0.9,2.6,1.9c0.2,1.1-0.5,2.4-2.5,2.4H62v1.8h6.3
		c0.4,0,0.7,0.1,1,0.2c0.8,0.2,1.5,1,1.5,1.9c0,0.7-0.2,1.1-0.7,1.6s-1.2,0.7-1.8,0.7h-6.4v1.8h6.4c1.5,0,2.3,0.9,2.5,1.8
		c0.2,1.2-0.6,2.5-2.4,2.5h-8c-0.5,0-1-0.2-1.5-0.5C58.3,27.3,58,26.9,57.8,26.3 M76.3,17.9h4.3c1.3,0,1.3-2.1,0-2.1h-4.3V17.9z"/>
</g>
</svg>
